<?xml version="1.0" encoding="utf-8"?>
<!-- Generator: Adobe Illustrator 25.0.0, SVG Export Plug-In . SVG Version: 6.00 Build 0)  -->
<svg version="1.0" id="Layer_1" xmlns="http://www.w3.org/2000/svg" xmlns:xlink="http://www.w3.org/1999/xlink" x="0px" y="0px"
	 viewBox="0 0 4000 4000" enable-background="new 0 0 4000 4000" xml:space="preserve">
<polygon fill="#92BB43" points="1441.194,2951.83 1538.606,2862.042 1488.065,1017.152 "/>
<polygon fill="#92BB43" points="1582.653,2838.325 1685.402,2750.65 1628.136,1082.935 "/>
<polygon fill="#92BB43" points="1734.554,2766.032 1822.611,2692.954 1776.923,1191.41 "/>
<path fill="#F18121" stroke="#F18121" stroke-width="8" stroke-miterlimit="10" d="M2034.332,1924.068
	c0,0,454.023-13.553,515.011,397.552c0,0,65.506,429.176-352.376,589.552c0,0,325.27-203.294,266.541-566.964
	S2034.332,1924.068,2034.332,1924.068z"/>
<path fill="#F18121" stroke="#F18121" stroke-width="8" stroke-miterlimit="10" d="M1962.417,2018.392
	c0,0,349.585-10.435,396.545,306.105c0,0,50.438,330.454-271.32,453.939c0,0,250.449-156.531,205.229-436.547
	S1962.417,2018.392,1962.417,2018.392z"/>
<path fill="#F18121" stroke="#F18121" stroke-width="8" stroke-miterlimit="10" d="M1894.916,2111.339
	c0,0,244.044-7.285,276.826,213.69c0,0,35.21,230.688-189.408,316.893c0,0,174.838-109.274,143.27-304.752
	C2094.037,2141.693,1894.916,2111.339,1894.916,2111.339z"/>
<path fill="#F18121" stroke="#F18121" stroke-width="8" stroke-miterlimit="10" d="M1822.611,2188.478
	c0,0,159.746-4.769,181.204,139.877c0,0,23.048,151.003-123.982,207.431c0,0,114.445-71.528,93.781-199.483
	C1952.95,2208.347,1822.611,2188.478,1822.611,2188.478z"/>
<circle fill="#EC8532" cx="1667.35" cy="862.555" r="177.45"/>
<text transform="matrix(1 0 0 1 1441.1938 3092.229)" fill="#F18121" font-family="'Oswald-Regular'" font-size="148.2863px">BONANZA INFRA     </text>
</svg>
